<svg width="42" height="36" viewBox="0 0 42 36" fill="none" xmlns="http://www.w3.org/2000/svg">
<path d="M21 0C9.3975 0 -3.37025e-08 8.26423 -7.52688e-08 18.4568C-1.08531e-07 26.613 6.0165 33.5296 14.3587 35.9682C15.4087 36.1419 15.7937 35.5706 15.7937 35.0807C15.7937 34.6424 15.7762 33.4811 15.7675 31.9425C9.926 33.0553 8.694 29.4663 8.694 29.4663C7.7385 27.3361 6.35775 26.7664 6.35775 26.7664C4.4555 25.6222 6.50475 25.6457 6.50475 25.6457C8.6135 25.7741 9.72125 27.5474 9.72125 27.5474C11.5937 30.3695 14.637 29.554 15.8375 29.0829C16.0265 27.8886 16.5672 27.0763 17.1675 26.6146C12.5037 26.1528 7.602 24.5657 7.602 17.4942C7.602 15.4798 8.41575 13.8332 9.76325 12.5419C9.527 12.0755 8.81825 10.1988 9.947 7.65693C9.947 7.65693 11.7057 7.16233 15.722 9.54925C17.402 9.13917 19.187 8.93569 20.972 8.9263C22.757 8.93569 24.542 9.13917 26.222 9.54925C30.212 7.16233 31.9707 7.65693 31.9707 7.65693C33.0995 10.1988 32.3907 12.0755 32.1807 12.5419C33.5195 13.8332 34.3332 15.4798 34.3332 17.4942C34.3332 24.5845 29.4245 26.145 24.752 26.5989C25.487 27.153 26.1695 28.2846 26.1695 30.0142C26.1695 32.484 26.1432 34.4687 26.1432 35.0682C26.1432 35.5518 26.5107 36.1294 27.587 35.9447C35.9887 33.5218 42 26.6005 42 18.4568C42 8.26423 32.5972 0 21 0Z" fill="white"/>
</svg>
