<svg width="38" height="39" viewBox="0 0 51 51" fill="none" xmlns="http://www.w3.org/2000/svg">
<path d="M30.2763 30.5305C30.2763 29.0337 29.0588 27.8161 27.5621 27.8161C27.5048 27.8161 27.4479 27.8185 27.3916 27.8219V28.1657C27.4482 28.1617 27.5045 28.157 27.5621 28.157C28.8706 28.157 29.9351 29.2218 29.9351 30.5305C29.9351 31.8392 28.8706 32.9038 27.5621 32.9038C27.5236 32.9038 27.4863 32.9 27.4485 32.898V33.0261V33.2418V33.9166H26.6056V34.3713H28.5186V33.9166H27.7893V33.2345C29.1801 33.1184 30.2763 31.9505 30.2763 30.5305Z" fill="white"/>
<path d="M37.1609 11.3463L37.2074 11.7231L36.6429 11.8427L36.5666 12.6479H37.2473L38.1505 12.5616L38.6153 12.0055L38.1205 11.8136L37.8483 11.5007L37.4398 10.8391L37.2473 9.90619L36.477 10.0605L36.2645 10.3909V10.7611L36.633 11.0143L37.1609 11.3463Z" fill="white"/>
<path d="M36.5068 11.6551L36.5466 11.1504L36.0985 10.957L35.4692 11.1031L34.9994 11.851V12.3374H35.5456L36.5068 11.6551Z" fill="white"/>
<path d="M23.5552 13.8026L23.4157 14.1595H22.7441V14.5064H22.9043C22.9043 14.5064 22.9143 14.5795 22.9283 14.6766L23.3393 14.6426L23.594 14.4824L23.6605 14.1612L23.9941 14.1321L24.1244 13.8623L23.8189 13.7991L23.5552 13.8026Z" fill="white"/>
<path d="M21.8244 14.4317L21.7996 14.7696L22.2869 14.7289L22.3367 14.3894L22.0445 14.1595L21.8244 14.4317Z" fill="white"/>
<path d="M50.9917 25.2385C50.985 24.4922 50.947 23.7528 50.8771 23.0231C50.6396 20.5926 50.0602 18.2634 49.1871 16.0803C49.124 15.9193 49.0643 15.7541 48.9962 15.5931C47.8358 12.8521 46.2054 10.3569 44.2132 8.20284C44.0837 8.06181 43.951 7.92393 43.8181 7.78619C43.4396 7.39525 43.0561 7.01245 42.6527 6.64723C38.1205 2.51924 32.0984 0 25.5 0C18.8462 0 12.7808 2.56582 8.23528 6.7544C7.17606 7.7306 6.20329 8.79811 5.31925 9.93863C1.98884 14.2482 0 19.6455 0 25.5C0 39.5598 11.4394 51 25.5 51C35.3913 51 43.9775 45.3355 48.2043 37.083C49.1073 35.3216 49.8113 33.4406 50.286 31.4684C50.4056 30.9703 50.5118 30.4656 50.6015 29.9559C50.8588 28.5075 50.9999 27.0182 50.9999 25.4984C50.9966 25.4137 50.9917 25.3265 50.9917 25.2385ZM46.1922 15.0468L46.3382 14.8808C46.5324 15.2576 46.7167 15.6387 46.8877 16.0279L46.6437 16.0179L46.1904 16.0802V15.0467H46.1922V15.0468ZM42.5065 10.5959L42.5098 9.45696C42.9116 9.88205 43.2968 10.3194 43.6653 10.7735L43.2071 11.4567L41.6001 11.4408L41.5006 11.1063L42.5065 10.5959ZM11.7473 7.7679V7.72474H12.257L12.3034 7.54956H13.1376V7.91393L12.896 8.23342H11.7454V7.76775H11.7473V7.7679ZM12.5633 8.90513C12.5633 8.90513 13.0746 8.81797 13.1194 8.81797C13.1617 8.81797 13.1194 9.32851 13.1194 9.32851L11.9648 9.40152L11.7456 9.13761L12.5633 8.90513ZM47.8159 19.0262H45.9498L44.8109 18.1803L43.6156 18.2958V19.0262H43.2373L42.8303 18.7357L40.7567 18.2112V16.8681L38.1305 17.0714L37.3153 17.5089H36.2744L35.7614 17.4575L34.4963 18.1613V19.4836L31.9105 21.3504L32.1248 22.1482H32.6502L32.5125 22.9076L32.1438 23.0438L32.1248 25.0276L34.3586 27.5743H35.3329L35.3911 27.4198H37.1408L37.6454 26.9533H38.6382L39.1828 27.4978L40.6586 27.6506L40.4644 29.6163L42.108 32.514L41.2416 34.1675L41.2996 34.9445L41.9819 35.6235V37.4946L42.875 38.6966V40.2536H43.6453C39.3522 45.528 32.8112 48.9031 25.495 48.9031C12.5906 48.9031 2.09258 38.4075 2.09258 25.5016C2.09258 22.2535 2.75914 19.1573 3.96111 16.3441V15.6145L4.79771 14.5986C5.0882 14.0491 5.39955 13.5152 5.73247 12.9933L5.7682 13.4182L4.79785 14.5986C4.49665 15.168 4.2143 15.7491 3.96125 16.3442V17.6748L4.93159 18.1429V19.994L5.86536 21.5852L6.62495 21.7006L6.72211 21.1552L5.82978 19.7748L5.65303 18.4334H6.17842L6.4009 19.8155L7.69417 21.7006L7.36124 22.3108L8.18055 23.5675L10.2225 24.0721V23.7426L11.0386 23.8581L10.9623 24.4408L11.603 24.5587L12.5958 24.8284L13.996 26.4246L15.7831 26.5591L15.9599 28.0175L14.7339 28.8726L14.6782 30.175L14.5014 30.9734L16.2712 33.1882L16.4065 33.9483C16.4065 33.9483 17.0481 34.1211 17.1278 34.1211C17.2043 34.1211 18.5656 35.1537 18.5656 35.1537V39.158L19.0504 39.2957L18.7226 41.1418L19.5385 42.2326L19.3859 44.0654L20.4665 45.9614L21.852 47.1716L23.2424 47.1998L23.3784 46.75L22.3549 45.8885L22.4146 45.4618L22.5964 44.9355L22.6354 44.4009L21.944 44.3809L21.5953 43.9428L22.1699 43.3883L22.2479 42.9716L21.6055 42.7873L21.6428 42.3988L22.5575 42.2593L23.9478 41.5918L24.4143 40.7336L25.8712 38.8675L25.5409 37.4082L25.9882 36.6312L27.3312 36.6709L28.2353 35.9536L28.5283 33.1397L29.5343 31.8713L29.711 31.0563L28.798 30.7641L28.1944 29.7722L26.1341 29.7515L24.4989 29.1298L24.4226 27.9635L23.8781 27.0097L22.4014 26.989L21.5448 25.6485L20.7877 25.2791L20.7487 25.6875L19.3667 25.7688L18.8621 25.0649L17.4219 24.7727L16.2357 26.1448L14.3688 25.8262L14.2327 23.7219L12.8714 23.4887L13.4151 22.4569L13.259 21.8642L11.4685 23.0604L10.343 22.9226L9.94049 22.0427L10.1887 21.1347L10.8087 19.9909L12.2373 19.2661H14.9981L14.989 20.1079L15.9817 20.5701L15.902 19.1324L16.6174 18.4127L18.061 17.4639L18.1615 16.7982L19.6001 15.2999L21.13 14.4516L20.9955 14.3411L22.0323 13.3658L22.4116 13.4662L22.5851 13.6837L22.9795 13.2462L23.0766 13.2039L22.645 13.1424L22.2043 13.0014V12.578L22.4375 12.388H22.9489L23.1854 12.4917L23.388 12.9001L23.6362 12.862V12.8271L23.7076 12.8504L24.4249 12.7401L24.5269 12.3881L24.9345 12.4919V12.873L24.5535 13.1327H24.5561L24.61 13.5511L25.9124 13.9503C25.9124 13.9503 25.9124 13.9553 25.9157 13.966L26.2127 13.9403L26.2336 13.3775L25.2035 12.9085L25.1469 12.6379L26.0002 12.3474L26.0393 11.5298L25.1469 10.9861L25.0881 9.60485L23.8619 10.2075H23.4129L23.5325 9.15661L21.8624 8.76396L21.1742 9.28607V10.8748L19.935 11.2683L19.4369 12.3034L18.8999 12.3897V11.0642L17.7337 10.9023L17.1484 10.5212L16.9142 9.66286L19.0019 8.44261L20.0222 8.13126L20.125 8.81768L20.6953 8.78696L20.7393 8.44246L21.3346 8.35687L21.3446 8.23656L21.0897 8.13111L21.0315 7.76761L21.7628 7.70617L22.2045 7.24707L22.2302 7.21307L22.2352 7.21478L22.3696 7.07532L23.9061 6.88185L24.5842 7.45797L22.8029 8.40674L25.0706 8.94214L25.3628 8.18341H26.3556L26.7043 7.52256L26.0037 7.34738V6.51063L23.8091 5.53858L22.2916 5.71376L21.4342 6.16028L21.4923 7.25022L20.5983 7.11405L20.4605 6.51221L21.3188 5.73362L19.7617 5.65717L19.3151 5.79334L19.121 6.31874L19.7045 6.41676L19.5883 7.00031L18.5973 7.05832L18.4413 7.44769L17.0017 7.48727C17.0017 7.48727 16.9627 6.67124 16.9012 6.67124C16.8456 6.67124 18.0302 6.65052 18.0302 6.65052L18.8868 5.81463L18.4194 5.58144L17.7994 6.18485L16.7675 6.12684L16.1383 5.26681H14.8161L13.4356 6.29702H14.6999L14.8136 6.6681L14.484 6.97845L15.8853 7.01831L16.0978 7.52299L14.5214 7.46483L14.4434 7.07547L13.4539 6.86128L12.9268 6.57079L11.7473 6.58065C15.6114 3.76592 20.3611 2.10001 25.4967 2.10001C31.4127 2.10001 36.8223 4.31132 40.9462 7.94622L40.6706 8.44261L39.5898 8.86584L39.1334 9.36051L39.2396 9.93492L39.7958 10.0129L40.1328 10.8512L41.0907 10.4636L41.2517 11.5867H40.9595L40.1709 11.4697L39.2977 11.6157L38.451 12.8127L37.2424 13.0011L37.068 14.0371L37.5794 14.1574L37.4299 14.8239L36.2279 14.5825L35.1273 14.8239L34.8931 15.4373L35.0824 16.7248L35.7298 17.027L36.8172 17.0204L37.5492 16.9539L37.775 16.3712L38.9206 14.8821L39.6728 15.0365L40.4148 14.365L40.5543 14.8905L42.3804 16.1223L42.1579 16.4235L41.3344 16.3795L41.6531 16.8278L42.1612 16.9407L42.7554 16.6925L42.7421 15.9777L43.0078 15.8459L42.7953 15.6208L41.5768 14.941L41.2547 14.0388H42.269L42.5895 14.36L43.466 15.1111L43.5009 16.0209L44.4056 16.9829L44.7411 15.664L45.3687 15.3219L45.4833 16.401L46.0958 17.0725L47.3161 17.0527C47.5534 17.6595 47.7659 18.2762 47.9487 18.9071L47.8159 19.0262ZM13.9063 11.587L14.5164 11.2949L15.071 11.4277L14.8818 12.1722L14.2841 12.3607L13.9063 11.587ZM17.1568 13.3385V13.82H15.759L15.2319 13.6731L15.363 13.3386L16.0346 13.0614H16.9544V13.3386H17.1568V13.3385ZM17.8011 14.01V14.4757L17.4492 14.7015L17.0142 14.7836C17.0142 14.7836 17.0142 14.0831 17.0142 14.0099H17.8011V14.01ZM17.4068 13.82V13.2637L17.8873 13.702L17.4068 13.82ZM17.6258 14.9414V15.3955L17.2904 15.7308H16.5459L16.662 15.2203L17.014 15.1896L17.0854 15.0144L17.6258 14.9414ZM15.7733 14.01H16.546L15.5532 15.3955L15.1457 15.1763L15.2337 14.5927L15.7733 14.01ZM18.9366 14.7836V15.236H18.1921L17.9896 14.9414V14.5197H18.0476L18.9366 14.7836ZM18.2535 14.1595L18.4643 13.937L18.8212 14.1595L18.5356 14.3961L18.2535 14.1595ZM48.1944 20.2082L48.2674 20.121C48.3006 20.2539 48.3304 20.3867 48.362 20.5195L48.1944 20.2082Z" fill="white"/>
<path d="M3.96289 15.6129V16.3425C4.21594 15.7457 4.49829 15.1664 4.79949 14.596L3.96289 15.6129Z" fill="white"/>
</svg>
