<svg width="34" height="30" viewBox="0 0 34 30" fill="none" xmlns="http://www.w3.org/2000/svg">
<path d="M17 0C7.6075 0 -2.80854e-08 6.88685 -6.2724e-08 15.3806C-9.04424e-08 22.1775 4.8705 27.9413 11.6237 29.9735C12.4737 30.1182 12.7854 29.6422 12.7854 29.2339C12.7854 28.8687 12.7712 27.9009 12.7642 26.6187C8.03533 27.5461 7.038 24.5553 7.038 24.5553C6.2645 22.7801 5.14675 22.3053 5.14675 22.3053C3.60683 21.3519 5.26575 21.3714 5.26575 21.3714C6.97283 21.4784 7.86958 22.9562 7.86958 22.9562C9.38542 25.3079 11.849 24.6283 12.8208 24.2357C12.9738 23.2405 13.4116 22.5636 13.8975 22.1788C10.1221 21.794 6.154 20.4714 6.154 14.5785C6.154 12.8998 6.81275 11.5277 7.90358 10.4516C7.71233 10.0629 7.13858 8.499 8.05233 6.38077C8.05233 6.38077 9.47608 5.96861 12.7273 7.95771C14.0873 7.61597 15.5323 7.44641 16.9773 7.43858C18.4223 7.44641 19.8673 7.61597 21.2273 7.95771C24.4573 5.96861 25.8811 6.38077 25.8811 6.38077C26.7948 8.499 26.2211 10.0629 26.0511 10.4516C27.1348 11.5277 27.7936 12.8998 27.7936 14.5785C27.7936 20.4871 23.8198 21.7875 20.0373 22.1658C20.6323 22.6275 21.1848 23.5705 21.1848 25.0118C21.1848 27.07 21.1636 28.7239 21.1636 29.2235C21.1636 29.6265 21.4611 30.1078 22.3323 29.9539C29.1337 27.9348 34 22.1671 34 15.3806C34 6.88685 26.3882 0 17 0Z" fill="white"/>
</svg>
