<?xml version="1.0" encoding="utf-8"?>
<!-- Generator: Adobe Illustrator 25.0.0, SVG Export Plug-In . SVG Version: 6.00 Build 0)  -->
<svg version="1.1" id="Слой_1" xmlns="http://www.w3.org/2000/svg" xmlns:xlink="http://www.w3.org/1999/xlink" x="0px" y="0px"
	 viewBox="0 0 48 48" style="enable-background:new 0 0 48 48;" xml:space="preserve">
<style type="text/css">
	.st0{fill:#1976D2;}
	.st1{fill:#FFFFFF;}
</style>
<rect class="st0" width="48" height="48"/>
<polygon class="st1" points="28.7,20.2 11,20.2 11,24.5 17.3,24.5 17.3,44.2 22.3,44.2 22.3,24.5 28.7,24.5 "/>
<path class="st1" d="M44.3,25.6c0,0-2.4-1.6-5.1-1.6c-2.7,0-3.7,1.3-3.7,2.6c0,3.5,9.8,3.2,9.8,10.3c0,10.9-15,6.1-15,6.1v-5.3
	c0,0,2.9,2.2,6.3,2.2s3.4-2.2,3.4-2.5c0-3.3-9.8-3.3-9.8-10.5c0-9.8,14.2-6,14.2-6L44.3,25.6z"/>
</svg>
