<svg width="20" height="22" viewBox="0 0 20 22" fill="none" xmlns="http://www.w3.org/2000/svg">
<path d="M-6.0193e-07 10.9377C-2.69364e-07 16.9808 4.44845 21.8755 9.93487 21.8755C14.3252 21.8755 18.0482 18.7418 19.3609 14.3968C19.4544 13.8499 19.1469 13.6494 18.8832 13.6494C18.6473 13.6494 18.0221 13.6585 17.1939 13.6631C17.793 16.7056 15.8611 17.3472 15.8611 17.3472C14.7144 17.8449 14.4078 18.5641 14.4078 18.5641C13.7919 19.5548 13.8045 18.4875 13.8045 18.4875C13.8736 17.3892 14.8282 16.8122 14.8282 16.8122C16.3472 15.8369 15.9083 14.2519 15.6547 13.6266C15.0118 13.5282 14.5746 13.2465 14.326 12.9339C14.0775 15.363 13.2232 17.916 9.41673 17.916C8.33242 17.916 7.4461 17.4922 6.75103 16.7903C6.49996 16.9134 5.48979 17.2825 4.12156 16.6946C4.12156 16.6946 3.85532 15.7786 5.14015 13.6868C4.91941 12.8117 4.80989 11.882 4.80483 10.9523C4.80989 10.0226 4.91941 9.0929 5.14015 8.21788C3.85532 6.13971 4.12156 5.22368 4.12156 5.22368C5.48979 4.63577 6.49996 5.00492 6.75103 5.1143C7.4461 4.41702 8.33242 3.99318 9.41673 3.99318C13.2333 3.99318 14.0733 6.54988 14.3176 8.98352C14.6159 8.6007 15.225 8.24523 16.156 8.24523C17.4854 8.24523 18.5537 8.2589 18.8764 8.2589C19.1368 8.2589 19.4476 8.06749 19.3482 7.50693C18.044 3.13092 14.3184 -6.69005e-06 9.93487 -6.46669e-06C4.44845 -6.18713e-06 -9.34346e-07 4.89737 -6.0193e-07 10.9377Z" fill="white"/>
</svg>
